<svg width="25" height="24" viewBox="0 0 25 24" fill="none" xmlns="http://www.w3.org/2000/svg">
<g clip-path="url(#clip0_1354_310)">
<path d="M12.375 0.47998C6.01258 0.47998 0.85498 5.63758 0.85498 12C0.85498 18.3624 6.01258 23.52 12.375 23.52C18.7374 23.52 23.895 18.3624 23.895 12C23.895 5.63758 18.7374 0.47998 12.375 0.47998ZM9.55498 16.7748H7.22218V9.26758H9.55498V16.7748ZM8.37418 8.34598C7.63738 8.34598 7.16098 7.82398 7.16098 7.17838C7.16098 6.51958 7.65178 6.01318 8.40418 6.01318C9.15658 6.01318 9.61738 6.51958 9.63178 7.17838C9.63178 7.82398 9.15658 8.34598 8.37418 8.34598ZM18.075 16.7748H15.7422V12.6144C15.7422 11.646 15.4038 10.9884 14.5602 10.9884C13.9158 10.9884 13.533 11.4336 13.3638 11.862C13.3014 12.0144 13.2858 12.2304 13.2858 12.4452V16.7736H10.9518V11.6616C10.9518 10.7244 10.9218 9.94078 10.8906 9.26638H12.9174L13.0242 10.3092H13.071C13.3782 9.81958 14.1306 9.09718 15.3894 9.09718C16.9242 9.09718 18.075 10.1256 18.075 12.336V16.7748Z" fill="#934B34"/>
</g>
<defs>
<clipPath id="clip0_1354_310">
<rect width="24" height="24" fill="white" transform="translate(0.375)"/>
</clipPath>
</defs>
</svg>
