<svg width="25" height="24" viewBox="0 0 25 24" fill="none" xmlns="http://www.w3.org/2000/svg">
<path fill-rule="evenodd" clip-rule="evenodd" d="M12.625 24C19.2524 24 24.625 18.6274 24.625 12C24.625 5.37258 19.2524 0 12.625 0C5.99758 0 0.625 5.37258 0.625 12C0.625 18.6274 5.99758 24 12.625 24ZM13.3971 16.4595C13.3546 16.357 13.2921 16.2638 13.2135 16.1854C13.1351 16.107 13.0421 16.0448 12.9396 16.0023C12.8372 15.9598 12.7274 15.938 12.6165 15.938C12.5056 15.938 12.3958 15.9598 12.2934 16.0023C12.191 16.0448 12.0979 16.107 12.0196 16.1854L11.6019 16.6031C11.1271 17.0779 10.4832 17.3446 9.81176 17.3446C9.14032 17.3446 8.49638 17.0779 8.0216 16.6031C7.54683 16.1283 7.2801 15.4844 7.2801 14.8129C7.2801 14.1415 7.54683 13.4976 8.0216 13.0228L9.71614 11.3297C10.1725 10.873 10.786 10.608 11.4313 10.5888C12.0766 10.5696 12.7048 10.7976 13.1875 11.2263C13.2706 11.3002 13.3674 11.3569 13.4724 11.3934C13.5775 11.4298 13.6887 11.4452 13.7997 11.4387C13.9107 11.4322 14.0193 11.4038 14.1193 11.3553C14.2194 11.3068 14.3089 11.2391 14.3828 11.156C14.4566 11.0729 14.5134 10.976 14.5499 10.871C14.5863 10.766 14.6017 10.6548 14.5952 10.5438C14.5886 10.4328 14.5603 10.3241 14.5118 10.2241C14.4633 10.124 14.3956 10.0345 14.3125 9.96067C13.5075 9.24552 12.4596 8.86521 11.3834 8.89762C10.3072 8.93004 9.28405 9.37274 8.52364 10.135L6.8277 11.8303C6.03628 12.6217 5.59166 13.6951 5.59166 14.8143C5.59166 15.9336 6.03628 17.007 6.8277 17.7984C7.61912 18.5898 8.69252 19.0344 9.81176 19.0344C10.931 19.0344 12.0044 18.5898 12.7958 17.7984L13.2135 17.3807C13.2921 17.3024 13.3546 17.2092 13.3971 17.1067C13.4397 17.0041 13.4616 16.8941 13.4616 16.7831C13.4616 16.672 13.4397 16.5621 13.3971 16.4595ZM15.4382 4.96708C16.557 4.96708 17.6302 5.41085 18.4222 6.20106V6.20246C19.2128 6.9949 19.6566 8.06866 19.6562 9.18802C19.6558 10.3074 19.2112 11.3808 18.4201 12.1727L16.7242 13.8679C15.9634 14.6291 14.9405 15.0708 13.8648 15.1026C12.789 15.1343 11.7418 14.7538 10.9375 14.0388C10.8544 13.9649 10.7866 13.8754 10.7381 13.7754C10.6896 13.6753 10.6613 13.5667 10.6547 13.4557C10.6482 13.3447 10.6636 13.2335 10.7001 13.1285C10.7365 13.0234 10.7933 12.9266 10.8672 12.8435C10.941 12.7604 11.0305 12.6926 11.1306 12.6441C11.2306 12.5956 11.3392 12.5673 11.4502 12.5608C11.5612 12.5542 11.6724 12.5696 11.7775 12.6061C11.8825 12.6425 11.9794 12.6993 12.0625 12.7732C12.5448 13.2024 13.173 13.4311 13.8184 13.4124C14.4639 13.3937 15.0778 13.1291 15.5345 12.6726L17.2297 10.9767C17.7045 10.5019 17.9712 9.85797 17.9712 9.18653C17.9712 8.51509 17.7045 7.87115 17.2297 7.39637C16.7549 6.92159 16.111 6.65486 15.4396 6.65486C14.7681 6.65486 14.1242 6.92159 13.6494 7.39637L13.2318 7.81403C13.0733 7.97253 12.8583 8.06158 12.6341 8.06158C12.4099 8.06158 12.195 7.97253 12.0364 7.81403C11.8779 7.65552 11.7889 7.44053 11.7889 7.21637C11.7889 6.99221 11.8779 6.77722 12.0364 6.61871L12.4541 6.20106C13.2462 5.41085 14.3193 4.96708 15.4382 4.96708Z" fill="#934B34"/>
</svg>
